<svg xmlns="http://www.w3.org/2000/svg" viewBox="0 0 512 512" role="img" aria-label="Code braces">
  <rect width="512" height="512" rx="112" fill="#112D4E"/>
  <path fill="#F9F7F7" d="M189.2 121.6c-28.8 0-45.2 16.8-45.2 46.2v37.6c0 17.6-8 27.8-24.6 31.2l-15.4 3.2v32.4l15.4 3.2c16.6 3.4 24.6 13.6 24.6 31.2v37.6c0 29.4 16.4 46.2 45.2 46.2h35.4v-42.2h-21.8c-9.8 0-14.2-4.8-14.2-15.4v-35.4c0-25.4-10.2-39.6-31.4-46.2 21.2-6.6 31.4-20.8 31.4-46.2v-35.4c0-10.6 4.4-15.4 14.2-15.4h21.8v-42.2h-35.4z"/>
  <path fill="#F9F7F7" d="M322.8 121.6h-35.4v42.2h21.8c9.8 0 14.2 4.8 14.2 15.4v35.4c0 25.4 10.2 39.6 31.4 46.2-21.2 6.6-31.4 20.8-31.4 46.2v35.4c0 10.6-4.4 15.4-14.2 15.4h-21.8v42.2h35.4c28.8 0 45.2-16.8 45.2-46.2v-37.6c0-17.6 8-27.8 24.6-31.2l15.4-3.2v-32.4l-15.4-3.2c-16.6-3.4-24.6-13.6-24.6-31.2v-37.6c0-29.4-16.4-46.2-45.2-46.2z"/>
  <circle cx="256" cy="256" r="18" fill="#3F72AF"/>
</svg>
